<?xml version="1.0" encoding="UTF-8"?>
<svg xmlns="http://www.w3.org/2000/svg" xmlns:xlink="http://www.w3.org/1999/xlink" width="200pt" height="200pt" viewBox="0 0 200 200" version="1.1">
<g id="surface1">
<path style=" stroke:none;fill-rule:nonzero;fill:rgb(0%,0%,0%);fill-opacity:1;" d="M 165.933594 25.667969 C 161.398438 31.199219 159.398438 32.667969 153.601562 34.800781 C 150.265625 36 147.464844 36.265625 135 36.667969 C 124.132812 37.066406 119.398438 37.464844 116.667969 38.332031 C 114.199219 39.132812 110.398438 39.535156 105 39.601562 C 95.199219 39.734375 93.933594 40.332031 85.332031 48.332031 C 82 51.464844 79.066406 54 78.800781 54.066406 C 78.535156 54.066406 77.066406 54.199219 75.464844 54.332031 C 73.933594 54.464844 72.265625 54.867188 71.800781 55.199219 C 71.332031 55.601562 69.265625 56.199219 67.066406 56.601562 C 61.066406 57.734375 58 59.734375 55.800781 64 C 54.066406 67.332031 53.933594 68.199219 54.132812 73 C 54.332031 76.398438 54.933594 79.398438 55.800781 81.332031 L 57.132812 84.332031 L 55.535156 87.265625 C 54.464844 89.332031 54 91.332031 54 94.066406 L 54 97.867188 L 48.933594 98.332031 C 40.734375 99.132812 37.667969 98.535156 34.199219 95.332031 C 30.265625 91.667969 26.535156 90 22 90 C 12 90 6 97.933594 7.933594 108.734375 C 9.734375 118.933594 16.734375 128.535156 25.535156 132.933594 C 30 135.132812 38 137.601562 45.667969 139.199219 C 47.535156 139.601562 51.535156 140.667969 54.601562 141.601562 C 59 143 61.535156 143.332031 66.933594 143.332031 C 77.066406 143.332031 84.464844 141.132812 92.464844 135.667969 C 97.132812 132.464844 102.132812 131 106.265625 131.535156 C 107.867188 131.800781 112.867188 133.398438 117.398438 135.265625 C 128.535156 139.667969 133.265625 140.867188 139.667969 140.867188 C 148.601562 140.867188 156.199219 136.933594 160.667969 130 C 161.867188 128.132812 164.132812 123.132812 165.734375 118.867188 C 167.332031 114.601562 169 110.867188 169.464844 110.535156 C 169.933594 110.265625 172.265625 108.867188 174.667969 107.535156 C 180.265625 104.398438 186.398438 98.199219 189.867188 92.199219 C 193.667969 85.667969 193.867188 85.066406 192.132812 85.667969 C 190.332031 86.199219 190.332031 86.265625 192.066406 81.132812 C 193.734375 76.199219 194.667969 64.464844 193.398438 63.734375 C 191.867188 62.800781 187.667969 65.800781 184.464844 70.066406 C 179.066406 77.332031 177.066406 79.601562 176.800781 78.800781 C 176.398438 77.464844 178 73.464844 180.398438 69.867188 C 181.667969 68 182.535156 66.332031 182.332031 66.132812 C 182.132812 65.933594 180.332031 65.734375 178.332031 65.734375 C 176.332031 65.667969 174.667969 65.535156 174.667969 65.332031 C 174.667969 65.132812 175.265625 63.332031 176.066406 61.332031 C 177.265625 58.132812 177.464844 56.601562 177.199219 49.667969 C 177 42.601562 176.734375 41.265625 175.199219 38.332031 C 174.132812 36.265625 173.332031 33.398438 173.066406 30.933594 C 172.667969 26.265625 171.265625 20.667969 170.601562 20.667969 C 170.332031 20.667969 168.199219 22.933594 165.933594 25.667969 Z M 131.332031 73 C 131.332031 75.535156 126.667969 80.132812 121.199219 83 C 117.464844 85 115.464844 85.601562 112 85.867188 C 106.667969 86.199219 105.464844 85.332031 108.398438 83 C 112 80.066406 121.265625 74.535156 125.132812 72.933594 C 130.199219 70.867188 131.332031 70.867188 131.332031 73 Z M 76.132812 76.066406 C 77.265625 77.535156 77.332031 78 76.601562 79.132812 C 75.332031 81.199219 76.265625 82.800781 78.667969 82.535156 C 80.800781 82.332031 81.535156 83.535156 79.398438 83.867188 C 77.734375 84.132812 74.199219 82.332031 73.464844 80.800781 C 72.535156 79.066406 71.933594 75 72.464844 74.398438 C 73.265625 73.601562 74.800781 74.265625 76.132812 76.066406 Z M 78.667969 80.398438 C 78.667969 80.933594 78.398438 81.199219 78 81 C 77.667969 80.800781 77.332031 80.332031 77.332031 79.933594 C 77.332031 79.601562 77.667969 79.332031 78 79.332031 C 78.398438 79.332031 78.667969 79.800781 78.667969 80.398438 Z M 147.132812 87.601562 C 148.199219 88.464844 149.933594 90.800781 151 92.734375 C 153.464844 97.332031 153.601562 102.398438 151.398438 109 C 147.867188 119.535156 143.199219 126 137.066406 129.132812 C 133.132812 131.132812 130.800781 130.933594 122.535156 127.867188 C 119 126.601562 114.464844 125.601562 110 125.066406 C 103.464844 124.332031 103.132812 124.199219 104.667969 123.332031 C 107.601562 121.667969 121.199219 121.667969 128.535156 123.265625 C 136.265625 125 138.867188 124.535156 142.933594 120.464844 C 148 115.332031 150.800781 104.132812 148.398438 98.398438 C 147.066406 95.265625 147.066406 95.265625 148.332031 95.734375 C 150.132812 96.464844 149.398438 95.398438 147.332031 94.332031 C 144.535156 92.867188 138.066406 93.066406 133.933594 94.667969 C 130 96.265625 123.066406 100.601562 118.667969 104.332031 C 117 105.734375 110.398438 111.800781 104 117.867188 C 86.800781 134.132812 80.066406 137.933594 68.601562 138 C 57.601562 138 53.800781 136.066406 40.132812 123.398438 C 36.332031 119.867188 31.601562 115.867188 29.601562 114.464844 C 24.933594 111.398438 22.535156 111.132812 26.332031 114.199219 C 32.464844 119.132812 39.398438 125.601562 40.132812 126.933594 C 40.867188 128.265625 40.800781 128.332031 39.535156 127.132812 C 38.265625 126 38.132812 126 37.734375 127.066406 C 37.464844 127.734375 37.800781 128.800781 38.464844 129.601562 C 39.601562 130.933594 39.601562 130.933594 38.464844 130.066406 C 37 128.933594 36.199219 129.601562 37.332031 131 C 38.464844 132.332031 38.132812 132.265625 32.867188 130.332031 C 21.265625 125.933594 13.535156 114.601562 15.933594 105.535156 C 16.933594 101.933594 18.867188 99.601562 21.734375 98.667969 C 26.933594 96.933594 32 100 36.398438 107.601562 C 39.933594 113.667969 45.265625 120.464844 47.933594 122.332031 C 51.464844 124.734375 56.535156 126.800781 58.199219 126.464844 C 59.601562 126.265625 59.601562 126.199219 58.332031 125.734375 C 54.398438 124.332031 50.667969 122 47.667969 119 C 43.601562 115 38.265625 106.734375 39.535156 106.332031 C 39.933594 106.199219 44.066406 105.601562 48.601562 105 C 53.132812 104.398438 59 103.265625 61.601562 102.535156 C 66.265625 101.265625 68.199219 100.332031 78 94.667969 C 84.398438 90.933594 89.800781 88.734375 92.332031 88.667969 C 94.734375 88.667969 97.867188 90.265625 103.398438 94.332031 C 107.398438 97.265625 109.601562 98.265625 108.066406 96.398438 C 107.464844 95.667969 108.066406 95.464844 111.535156 95.199219 C 114.535156 94.933594 117.933594 93.933594 123.265625 91.667969 C 137.800781 85.535156 143.535156 84.535156 147.132812 87.601562 Z M 143.535156 95.398438 C 145.667969 96.398438 147.332031 99.332031 147.332031 102.265625 C 147.332031 104.601562 147.265625 104.667969 144.933594 104.667969 C 143.398438 104.667969 141.265625 105.398438 139.332031 106.601562 L 136.199219 108.535156 L 134.800781 107.132812 L 133.398438 105.734375 L 130.667969 108.667969 C 128.464844 111.066406 127.800781 111.464844 127.332031 110.667969 C 127 110.132812 126.332031 109.066406 125.800781 108.398438 C 124.867188 107.132812 124.800781 107.132812 123 109.066406 C 120.132812 112.132812 119.464844 114 122.199219 111.398438 L 124.535156 109.199219 L 125.601562 111.199219 C 127.265625 114.398438 127.933594 114.398438 130.734375 111.265625 L 133.332031 108.332031 L 134.601562 109.867188 L 135.867188 111.332031 L 139.066406 109.667969 C 143.132812 107.464844 146 107.398438 146 109.464844 C 146 112.066406 142.464844 118.199219 140.066406 119.800781 C 137.398438 121.601562 133.066406 121.800781 127.398438 120.398438 C 119.535156 118.398438 113.734375 118.398438 106 120.398438 C 104.867188 120.667969 106.667969 118.601562 111.933594 113.601562 C 127.464844 98.734375 137.800781 92.800781 143.535156 95.398438 Z M 39.667969 128.667969 C 40.332031 129.398438 40.734375 130 40.535156 130 C 40.332031 130 39.667969 129.398438 39 128.667969 C 38.332031 127.933594 37.933594 127.332031 38.132812 127.332031 C 38.332031 127.332031 39 127.933594 39.667969 128.667969 Z M 39.667969 128.667969 "/>
<path style=" stroke:none;fill-rule:nonzero;fill:rgb(0%,0%,0%);fill-opacity:1;" d="M 115.066406 79.398438 C 112.867188 81.132812 112.933594 83.535156 115.199219 83.867188 C 118.265625 84.332031 121 79.464844 118.265625 78.398438 C 116.867188 77.867188 117.066406 77.800781 115.066406 79.398438 Z M 116.933594 81 C 116.667969 81.535156 116.265625 82 115.933594 82 C 115.667969 82 115.535156 81.535156 115.734375 81 C 116 80.464844 116.398438 80 116.734375 80 C 117 80 117.132812 80.464844 116.933594 81 Z M 116.933594 81 "/>
<path style=" stroke:none;fill-rule:nonzero;fill:rgb(0%,0%,0%);fill-opacity:1;" d="M 93.066406 92.734375 C 92.199219 93.265625 92.066406 93.667969 92.601562 94 C 93.199219 94.332031 93.132812 94.667969 92.332031 95.332031 C 91.535156 96 91.332031 96 91.332031 95.332031 C 91.332031 94.734375 90.867188 94.867188 90 95.667969 C 89.265625 96.332031 88.667969 97.601562 88.667969 98.464844 C 88.667969 100.601562 91.199219 100.535156 94.132812 98.265625 C 95.734375 97 95.667969 97.132812 93.734375 98.933594 C 90.933594 101.535156 91.464844 102.332031 94.332031 99.800781 C 96.199219 98.199219 97.132812 94.332031 95.933594 92.867188 C 95 91.800781 94.734375 91.800781 93.066406 92.734375 Z M 93.066406 92.734375 "/>
</g>
</svg>
