<?xml version="1.0" standalone="no"?>
<!DOCTYPE svg PUBLIC "-//W3C//DTD SVG 20010904//EN"
 "http://www.w3.org/TR/2001/REC-SVG-20010904/DTD/svg10.dtd">
<svg version="1.0" xmlns="http://www.w3.org/2000/svg"
 width="300.000000pt" height="300.000000pt" viewBox="0 0 300.000000 300.000000"
 preserveAspectRatio="xMidYMid meet">

<g transform="translate(0.000000,300.000000) scale(0.100000,-0.100000)"
fill="#000000" stroke="none">
<path d="M2490 2614 c-116 -136 -168 -155 -465 -165 -164 -6 -234 -12 -275
-25 -37 -12 -92 -18 -170 -18 -144 -2 -175 -15 -285 -117 -102 -96 -122 -109
-163 -109 -18 0 -43 -5 -55 -12 -12 -6 -46 -15 -75 -19 -81 -11 -135 -48 -168
-114 -24 -50 -26 -64 -22 -133 3 -51 12 -93 27 -124 l23 -47 -23 -31 c-18 -23
-24 -48 -27 -100 l-4 -69 -65 -7 c-36 -3 -92 -4 -124 -1 -52 4 -65 10 -109 50
-127 115 -303 99 -370 -33 -28 -55 -33 -109 -16 -188 31 -148 123 -272 253
-340 79 -41 236 -92 283 -92 14 0 66 -14 115 -32 124 -43 282 -51 399 -19 84
23 162 59 215 99 47 35 123 62 177 62 32 0 88 -17 185 -55 182 -71 247 -88
344 -88 182 0 304 95 375 293 55 154 52 150 152 210 50 31 111 78 138 107 42
46 140 198 140 217 0 4 -9 4 -20 1 -25 -8 -25 -2 1 71 22 65 36 230 21 253
-19 26 -90 -26 -149 -108 -28 -41 -64 -86 -78 -100 -23 -24 -25 -24 -25 -6 1
27 35 102 67 143 14 18 22 36 19 40 -4 3 -31 6 -61 6 -30 1 -55 3 -55 6 1 3 9
30 20 60 37 105 21 319 -28 368 -11 12 -17 34 -17 67 -1 55 -24 175 -34 175
-4 0 -36 -34 -71 -76z m-520 -708 c0 -93 -238 -221 -355 -192 -22 6 -25 9 -14
22 20 25 175 123 251 160 88 41 118 44 118 10z m-824 -51 c12 -19 13 -27 3
-43 -16 -26 4 -54 35 -50 11 2 21 -1 21 -7 0 -5 -16 -9 -34 -9 -42 2 -77 38
-87 89 -9 49 0 69 26 55 11 -6 27 -21 36 -35z m34 -61 c0 -8 -4 -12 -10 -9 -5
3 -10 10 -10 16 0 5 5 9 10 9 6 0 10 -7 10 -16z m1027 -108 c16 -13 42 -48 58
-77 37 -69 39 -145 6 -244 -53 -158 -123 -255 -215 -302 -59 -30 -94 -27 -218
19 -53 19 -121 34 -188 42 -98 11 -103 13 -80 26 44 25 248 25 358 1 116 -26
155 -19 216 42 76 77 118 245 82 331 -20 47 -20 47 -1 40 27 -11 16 5 -15 21
-42 22 -139 19 -201 -5 -59 -24 -163 -89 -229 -145 -25 -21 -124 -112 -220
-203 -258 -244 -359 -301 -531 -302 -165 0 -222 29 -427 219 -57 53 -128 113
-158 134 -70 46 -106 50 -49 4 92 -74 196 -171 207 -191 11 -20 10 -21 -9 -3
-19 17 -21 17 -27 1 -4 -10 1 -26 11 -38 17 -20 17 -20 0 -7 -22 17 -34 7 -17
-14 17 -20 12 -19 -67 10 -174 66 -290 236 -254 372 15 54 44 89 87 103 78 26
154 -20 220 -134 53 -91 133 -193 173 -221 53 -36 129 -67 154 -62 21 3 21 4
2 11 -59 21 -115 56 -160 101 -61 60 -141 184 -122 190 6 2 68 11 136 20 68 9
156 26 195 37 70 19 99 33 246 118 96 56 177 89 215 90 36 0 83 -24 166 -85
60 -44 93 -59 70 -31 -9 11 0 14 52 18 45 4 96 19 176 53 218 92 304 107 358
61z m-54 -117 c32 -15 57 -59 57 -103 0 -35 -1 -36 -36 -36 -23 0 -55 -11 -84
-29 l-47 -29 -21 21 -21 21 -41 -44 c-33 -36 -43 -42 -50 -30 -5 8 -15 24 -23
34 -14 19 -15 19 -42 -10 -43 -46 -53 -74 -12 -35 l35 33 16 -30 c25 -48 35
-48 77 -1 l39 44 19 -23 19 -22 48 25 c61 33 104 34 104 3 0 -39 -53 -131 -89
-155 -40 -27 -105 -30 -190 -9 -118 30 -205 30 -321 0 -17 -4 10 27 89 102
233 223 388 312 474 273z m-1558 -499 c10 -11 16 -20 13 -20 -3 0 -13 9 -23
20 -10 11 -16 20 -13 20 3 0 13 -9 23 -20z"/>
<path d="M1724 1805 c-30 -30 -28 -59 4 -63 46 -7 87 66 46 82 -22 9 -22 9
-50 -19z m30 -20 c-4 -8 -10 -15 -15 -15 -4 0 -6 7 -3 15 4 8 10 15 15 15 4 0
6 -7 3 -15z"/>
<path d="M1396 1609 c-13 -8 -15 -14 -7 -19 9 -5 8 -10 -4 -20 -12 -10 -15
-10 -15 0 0 9 -7 7 -20 -5 -11 -10 -20 -29 -20 -42 0 -32 38 -31 82 3 24 19
23 17 -6 -10 -42 -39 -34 -51 9 -13 28 24 42 82 24 104 -14 16 -18 16 -43 2z"/>
</g>
</svg>
