<?xml version="1.0" encoding="UTF-8"?>
<svg xmlns="http://www.w3.org/2000/svg" xmlns:xlink="http://www.w3.org/1999/xlink" width="75pt" height="75pt" viewBox="0 0 55 55" version="1.1">
<g id="surface1">
<path style=" stroke:none;fill-rule:nonzero;fill:rgb(0%,0%,0%);fill-opacity:1;" d="M 45.648438 7.078125 C 43.523438 9.570312 42.570312 9.917969 37.125 10.101562 C 34.117188 10.210938 32.835938 10.320312 32.082031 10.558594 C 31.40625 10.78125 30.398438 10.890625 28.964844 10.890625 C 26.328125 10.925781 25.757812 11.164062 23.742188 13.035156 C 21.871094 14.796875 21.503906 15.035156 20.753906 15.035156 C 20.421875 15.035156 19.964844 15.125 19.746094 15.253906 C 19.523438 15.363281 18.902344 15.527344 18.371094 15.601562 C 16.882812 15.804688 15.894531 16.480469 15.289062 17.691406 C 14.851562 18.609375 14.8125 18.867188 14.886719 20.128906 C 14.941406 21.066406 15.105469 21.835938 15.382812 22.402344 L 15.804688 23.265625 L 15.382812 23.832031 C 15.050781 24.253906 14.941406 24.714844 14.886719 25.667969 L 14.8125 26.933594 L 13.621094 27.058594 C 12.960938 27.117188 11.933594 27.132812 11.347656 27.078125 C 10.394531 27.003906 10.15625 26.894531 9.351562 26.160156 C 7.023438 24.054688 3.796875 24.347656 2.566406 26.765625 C 2.054688 27.773438 1.960938 28.765625 2.273438 30.214844 C 2.839844 32.925781 4.527344 35.199219 6.910156 36.445312 C 8.359375 37.199219 11.238281 38.132812 12.101562 38.132812 C 12.355469 38.132812 13.308594 38.390625 14.207031 38.71875 C 16.480469 39.507812 19.378906 39.65625 21.523438 39.066406 C 23.0625 38.648438 24.492188 37.988281 25.464844 37.253906 C 26.328125 36.613281 27.71875 36.117188 28.710938 36.117188 C 29.296875 36.117188 30.324219 36.429688 32.101562 37.125 C 35.4375 38.425781 36.628906 38.738281 38.410156 38.738281 C 41.746094 38.738281 43.980469 36.996094 45.285156 33.367188 C 46.292969 30.542969 46.238281 30.617188 48.070312 29.515625 C 48.988281 28.949219 50.105469 28.085938 50.601562 27.554688 C 51.371094 26.710938 53.167969 23.925781 53.167969 23.578125 C 53.167969 23.503906 53 23.503906 52.800781 23.558594 C 52.339844 23.703125 52.339844 23.59375 52.816406 22.257812 C 53.222656 21.066406 53.476562 18.039062 53.203125 17.617188 C 52.855469 17.140625 51.554688 18.09375 50.472656 19.597656 C 49.957031 20.351562 49.296875 21.175781 49.042969 21.433594 C 48.621094 21.871094 48.582031 21.871094 48.582031 21.542969 C 48.601562 21.046875 49.226562 19.671875 49.8125 18.921875 C 50.066406 18.589844 50.214844 18.257812 50.160156 18.1875 C 50.085938 18.132812 49.589844 18.078125 49.042969 18.078125 C 48.492188 18.058594 48.035156 18.023438 48.035156 17.964844 C 48.050781 17.910156 48.199219 17.417969 48.398438 16.867188 C 49.078125 14.941406 48.785156 11.019531 47.886719 10.121094 C 47.683594 9.898438 47.574219 9.496094 47.574219 8.890625 C 47.558594 7.882812 47.132812 5.683594 46.953125 5.683594 C 46.878906 5.683594 46.292969 6.308594 45.648438 7.078125 Z M 36.117188 20.058594 C 36.117188 21.761719 31.753906 24.109375 29.609375 23.578125 C 29.203125 23.464844 29.148438 23.410156 29.351562 23.171875 C 29.71875 22.714844 32.558594 20.917969 33.953125 20.242188 C 35.566406 19.488281 36.117188 19.433594 36.117188 20.058594 Z M 21.007812 20.992188 C 21.230469 21.339844 21.25 21.488281 21.066406 21.78125 C 20.773438 22.257812 21.136719 22.769531 21.707031 22.695312 C 21.910156 22.660156 22.089844 22.714844 22.089844 22.824219 C 22.089844 22.917969 21.796875 22.992188 21.46875 22.992188 C 20.699219 22.953125 20.058594 22.292969 19.875 21.359375 C 19.707031 20.460938 19.875 20.09375 20.351562 20.351562 C 20.550781 20.460938 20.84375 20.734375 21.007812 20.992188 Z M 21.632812 22.109375 C 21.632812 22.257812 21.558594 22.328125 21.449219 22.273438 C 21.359375 22.21875 21.265625 22.089844 21.265625 21.980469 C 21.265625 21.890625 21.359375 21.816406 21.449219 21.816406 C 21.558594 21.816406 21.632812 21.945312 21.632812 22.109375 Z M 40.460938 24.089844 C 40.753906 24.328125 41.230469 24.96875 41.523438 25.503906 C 42.203125 26.765625 42.242188 28.160156 41.632812 29.976562 C 40.664062 32.871094 39.378906 34.648438 37.691406 35.511719 C 36.613281 36.0625 35.96875 36.007812 33.695312 35.164062 C 32.726562 34.816406 31.476562 34.539062 30.25 34.394531 C 28.453125 34.191406 28.363281 34.15625 28.785156 33.917969 C 29.589844 33.457031 33.328125 33.457031 35.347656 33.898438 C 37.472656 34.375 38.1875 34.246094 39.308594 33.128906 C 40.699219 31.714844 41.46875 28.636719 40.808594 27.058594 C 40.441406 26.199219 40.441406 26.199219 40.792969 26.328125 C 41.285156 26.527344 41.085938 26.234375 40.515625 25.941406 C 39.746094 25.539062 37.96875 25.59375 36.832031 26.035156 C 35.75 26.472656 33.84375 27.664062 32.632812 28.691406 C 32.175781 29.078125 30.359375 30.746094 28.601562 32.414062 C 23.871094 36.886719 22.019531 37.933594 18.867188 37.949219 C 15.839844 37.949219 14.796875 37.417969 11.035156 33.933594 C 9.992188 32.964844 8.691406 31.863281 8.140625 31.476562 C 6.855469 30.632812 6.195312 30.5625 7.242188 31.40625 C 8.929688 32.761719 10.835938 34.539062 11.035156 34.90625 C 11.238281 35.273438 11.21875 35.292969 10.871094 34.960938 C 10.523438 34.648438 10.488281 34.648438 10.378906 34.941406 C 10.304688 35.125 10.394531 35.421875 10.578125 35.640625 C 10.890625 36.007812 10.890625 36.007812 10.578125 35.769531 C 10.175781 35.457031 9.953125 35.640625 10.265625 36.023438 C 10.578125 36.390625 10.488281 36.371094 9.039062 35.839844 C 5.847656 34.632812 3.722656 31.515625 4.382812 29.023438 C 4.65625 28.03125 5.1875 27.390625 5.976562 27.132812 C 7.40625 26.65625 8.800781 27.5 10.007812 29.589844 C 10.980469 31.257812 12.449219 33.128906 13.183594 33.640625 C 14.152344 34.300781 15.546875 34.871094 16.003906 34.777344 C 16.390625 34.722656 16.390625 34.703125 16.042969 34.578125 C 14.960938 34.191406 13.933594 33.550781 13.109375 32.726562 C 11.992188 31.625 10.523438 29.351562 10.871094 29.242188 C 10.980469 29.203125 12.117188 29.039062 13.367188 28.875 C 14.613281 28.710938 16.226562 28.398438 16.941406 28.195312 C 18.222656 27.847656 18.753906 27.589844 21.449219 26.035156 C 23.210938 25.007812 24.695312 24.402344 25.390625 24.382812 C 26.050781 24.382812 26.914062 24.824219 28.433594 25.941406 C 29.535156 26.75 30.140625 27.023438 29.71875 26.507812 C 29.554688 26.308594 29.71875 26.253906 30.671875 26.179688 C 31.496094 26.105469 32.433594 25.832031 33.898438 25.207031 C 37.894531 23.523438 39.472656 23.246094 40.460938 24.089844 Z M 39.472656 26.234375 C 40.058594 26.507812 40.515625 27.316406 40.515625 28.125 C 40.515625 28.765625 40.496094 28.785156 39.855469 28.785156 C 39.433594 28.785156 38.847656 28.984375 38.316406 29.316406 L 37.453125 29.847656 L 37.070312 29.460938 L 36.683594 29.078125 L 35.933594 29.882812 C 35.328125 30.542969 35.144531 30.652344 35.015625 30.433594 C 34.925781 30.285156 34.742188 29.992188 34.59375 29.808594 C 34.339844 29.460938 34.320312 29.460938 33.824219 29.992188 C 33.035156 30.835938 32.851562 31.351562 33.605469 30.632812 L 34.246094 30.03125 L 34.539062 30.578125 C 35 31.460938 35.183594 31.460938 35.953125 30.597656 L 36.667969 29.792969 L 37.015625 30.214844 L 37.363281 30.617188 L 38.242188 30.160156 C 39.363281 29.554688 40.148438 29.535156 40.148438 30.101562 C 40.148438 30.816406 39.179688 32.503906 38.519531 32.945312 C 37.785156 33.441406 36.59375 33.496094 35.035156 33.109375 C 32.871094 32.558594 31.277344 32.558594 29.148438 33.109375 C 28.839844 33.183594 29.332031 32.617188 30.78125 31.242188 C 35.054688 27.152344 37.894531 25.519531 39.472656 26.234375 Z M 10.910156 35.382812 C 11.089844 35.585938 11.203125 35.75 11.148438 35.75 C 11.089844 35.75 10.910156 35.585938 10.726562 35.382812 C 10.542969 35.183594 10.433594 35.015625 10.488281 35.015625 C 10.542969 35.015625 10.726562 35.183594 10.910156 35.382812 Z M 10.910156 35.382812 "/>
<path style=" stroke:none;fill-rule:nonzero;fill:rgb(0%,0%,0%);fill-opacity:1;" d="M 31.605469 21.910156 C 31.058594 22.457031 31.09375 22.992188 31.679688 23.0625 C 32.523438 23.191406 33.273438 21.851562 32.523438 21.558594 C 32.121094 21.394531 32.121094 21.394531 31.605469 21.910156 Z M 32.15625 22.273438 C 32.082031 22.421875 31.972656 22.550781 31.882812 22.550781 C 31.808594 22.550781 31.773438 22.421875 31.828125 22.273438 C 31.898438 22.128906 32.007812 22 32.101562 22 C 32.175781 22 32.210938 22.128906 32.15625 22.273438 Z M 32.15625 22.273438 "/>
<path style=" stroke:none;fill-rule:nonzero;fill:rgb(0%,0%,0%);fill-opacity:1;" d="M 25.59375 25.503906 C 25.355469 25.648438 25.316406 25.757812 25.464844 25.851562 C 25.628906 25.941406 25.613281 26.035156 25.390625 26.214844 C 25.171875 26.398438 25.117188 26.398438 25.117188 26.214844 C 25.117188 26.050781 24.988281 26.089844 24.75 26.308594 C 24.546875 26.492188 24.382812 26.839844 24.382812 27.078125 C 24.382812 27.664062 25.078125 27.648438 25.886719 27.023438 C 26.328125 26.675781 26.308594 26.710938 25.777344 27.207031 C 25.007812 27.921875 25.152344 28.140625 25.941406 27.445312 C 26.453125 27.003906 26.710938 25.941406 26.382812 25.539062 C 26.125 25.246094 26.050781 25.246094 25.59375 25.503906 Z M 25.59375 25.503906 "/>
</g>
</svg>
